<svg xmlns="http://www.w3.org/2000/svg" viewBox="-69 130 882 793">
  <path
    fill="#00ace7"
    d="m 166.17227,234.58735 0,103.4063 -103.437499,0 0,51.6874 103.437499,0 0,103.3751 51.7187,0 0,-103.3751 103.4688,0 0,-51.6874 -103.4688,0 0,-103.4063 -51.7187,0 z m 258.62504,103.4063 0,51.6562 258.6874,0 0,-51.6562 -258.6874,0 z m 116,206.7187 0,51.6875 51.7499,0 0,-51.6875 -51.7499,0 z m -441.500039,24.5312 -51.25,51.12509 73.156199,73.0937 -73.156199,73.0625 51.25,51.1562 73.124999,-73.0625 73.1562,73.1563 51.2188,-51.25 -73.125,-73.0625 73.125,-73.0937 -51.2188,-51.12509 -73.1562,73.09379 -73.124999,-73.09379 z m 338.062539,78.87509 0,51.7187 258.6874,0 0,-51.7187 -258.6874,0 z m 103.4375,103.3437 0,51.7188 51.7499,0 0,-51.7188 -51.7499,0 z"
  />
</svg>
